<svg width="20" height="21" viewBox="0 0 20 21" fill="none" xmlns="http://www.w3.org/2000/svg">
<path fill-rule="evenodd" clip-rule="evenodd" d="M9.92765 11.0467C11.2344 10.3435 12.1227 8.96304 12.1227 7.3751C12.1227 5.07392 10.2572 3.20844 7.95605 3.20844C5.65487 3.20844 3.78939 5.07392 3.78939 7.3751C3.78939 8.96304 4.67768 10.3435 5.98446 11.0467C3.48661 11.9302 1.70605 14.4463 1.70605 17.3749C1.70605 17.605 1.8926 17.7916 2.12272 17.7916C2.35284 17.7916 2.53939 17.605 2.53939 17.3749C2.53939 14.1263 4.99106 11.5426 7.95605 11.5426C10.921 11.5426 13.3727 14.1263 13.3727 17.3749C13.3727 17.605 13.5593 17.7916 13.7894 17.7916C14.0195 17.7916 14.2061 17.605 14.2061 17.3749C14.2061 14.4463 12.4255 11.9302 9.92765 11.0467ZM11.2894 7.3751C11.2894 9.21605 9.797 10.7084 7.95605 10.7084C6.11511 10.7084 4.62272 9.21605 4.62272 7.3751C4.62272 5.53415 6.11511 4.04177 7.95605 4.04177C9.797 4.04177 11.2894 5.53415 11.2894 7.3751Z" fill="#2D3142"/>
<path d="M15.462 13.1315C15.2318 13.1315 15.0453 12.945 15.0453 12.7149V10.7162H13.0468C12.8167 10.7162 12.6301 10.5296 12.6301 10.2995C12.6301 10.0694 12.8167 9.88283 13.0468 9.88283H15.0453V7.88444C15.0453 7.65432 15.2318 7.46777 15.462 7.46777C15.6921 7.46777 15.8786 7.65432 15.8786 7.88444V9.88283H17.8772C18.1073 9.88283 18.2939 10.0694 18.2939 10.2995C18.2939 10.5296 18.1073 10.7162 17.8772 10.7162H15.8786V12.7149C15.8786 12.945 15.6921 13.1315 15.462 13.1315Z" fill="#2D3142"/>
</svg>
