<svg width="20" height="21" viewBox="0 0 20 21" fill="none" xmlns="http://www.w3.org/2000/svg">
<path d="M10.7734 2.50314L11.7855 3.61917C12.0343 3.89271 12.4174 4.01033 12.7862 3.93101L14.2901 3.59729C14.8962 3.46326 15.4823 3.87356 15.5366 4.46441L15.671 5.93604C15.7053 6.29711 15.9426 6.60894 16.2886 6.75118L17.7096 7.32835C18.2814 7.56086 18.5044 8.22282 18.187 8.7316L17.3922 9.99808C17.1978 10.3072 17.1978 10.6956 17.3922 11.0047L18.187 12.2712C18.5072 12.78 18.2814 13.4419 17.7096 13.6744L16.2886 14.2516C15.9398 14.3938 15.7025 14.7057 15.671 15.0667L15.5366 16.5384C15.4823 17.1292 14.8934 17.5395 14.2901 17.4055L12.7862 17.0718C12.4174 16.9897 12.0343 17.1101 11.7855 17.3836L10.7734 18.4969C10.3674 18.9455 9.63835 18.9455 9.23236 18.4969L8.22024 17.3809C7.9715 17.1073 7.58838 16.9897 7.21956 17.069L5.71282 17.4028C5.10669 17.5368 4.52058 17.1265 4.46625 16.5356L4.33188 15.064C4.29757 14.7029 4.06026 14.3911 3.71431 14.2489L2.29334 13.6717C1.72153 13.4392 1.49852 12.7772 1.81588 12.2684L2.6107 11.002C2.80512 10.6929 2.80512 10.3044 2.6107 9.99534L1.81302 8.72886C1.4928 8.22008 1.71867 7.55812 2.29048 7.32561L3.71145 6.74845C4.06026 6.60621 4.29757 6.29437 4.32902 5.9333L4.46339 4.46441C4.51772 3.87356 5.10669 3.46326 5.70996 3.59729L7.21384 3.93101C7.58266 4.01307 7.96578 3.89271 8.21452 3.61917L9.22664 2.50314C9.63835 2.05454 10.3646 2.05454 10.7734 2.50314Z" fill="#00B2EA"/>
<path d="M8.44478 13.8334C8.28362 13.8334 8.12246 13.7685 8.00159 13.6415L6.01663 11.5568C5.77221 11.3001 5.77221 10.8826 6.01663 10.6259C6.26106 10.3692 6.65859 10.3692 6.90302 10.6259L8.44478 12.2451L13.0969 7.35922C13.3414 7.10251 13.7389 7.10251 13.9833 7.35922C14.2278 7.61593 14.2278 8.03343 13.9833 8.29014L8.88797 13.6387C8.76442 13.7685 8.60594 13.8334 8.44478 13.8334Z" fill="white"/>
</svg>
