<svg width="24" height="24" viewBox="0 0 24 24" fill="none" xmlns="http://www.w3.org/2000/svg">
<path d="M19 2H12C11.2044 2 10.4413 2.31607 9.87868 2.87868C9.31607 3.44129 9 4.20435 9 5V6C9 6.26522 9.10536 6.51957 9.29289 6.70711C9.48043 6.89464 9.73478 7 10 7C10.2652 7 10.5196 6.89464 10.7071 6.70711C10.8946 6.51957 11 6.26522 11 6V5C11 4.73478 11.1054 4.48043 11.2929 4.29289C11.4804 4.10536 11.7348 4 12 4H19C19.2652 4 19.5196 4.10536 19.7071 4.29289C19.8946 4.48043 20 4.73478 20 5V19C20 19.2652 19.8946 19.5196 19.7071 19.7071C19.5196 19.8946 19.2652 20 19 20H12C11.7348 20 11.4804 19.8946 11.2929 19.7071C11.1054 19.5196 11 19.2652 11 19V18C11 17.7348 10.8946 17.4804 10.7071 17.2929C10.5196 17.1054 10.2652 17 10 17C9.73478 17 9.48043 17.1054 9.29289 17.2929C9.10536 17.4804 9 17.7348 9 18V19C9 19.7956 9.31607 20.5587 9.87868 21.1213C10.4413 21.6839 11.2044 22 12 22H19C19.7956 22 20.5587 21.6839 21.1213 21.1213C21.6839 20.5587 22 19.7956 22 19V5C22 4.20435 21.6839 3.44129 21.1213 2.87868C20.5587 2.31607 19.7956 2 19 2Z" fill="#00B2EA"/>
<path d="M13.9951 11.9999C13.9951 12.2652 13.8898 12.5195 13.7022 12.707C13.5147 12.8946 13.2603 12.9999 12.9951 12.9999H5.40512L7.70512 15.2899C7.79885 15.3829 7.87324 15.4935 7.92401 15.6154C7.97478 15.7372 8.00092 15.8679 8.00092 15.9999C8.00092 16.132 7.97478 16.2627 7.92401 16.3845C7.87324 16.5064 7.79885 16.617 7.70512 16.7099C7.61215 16.8037 7.50155 16.8781 7.37969 16.9288C7.25783 16.9796 7.12713 17.0057 6.99512 17.0057C6.86311 17.0057 6.7324 16.9796 6.61054 16.9288C6.48868 16.8781 6.37808 16.8037 6.28512 16.7099L2.28512 12.7099C2.19408 12.6148 2.12271 12.5027 2.07512 12.3799C1.9751 12.1365 1.9751 11.8634 2.07512 11.6199C2.12271 11.4972 2.19408 11.385 2.28512 11.2899L6.28512 7.28994C6.37836 7.1967 6.48905 7.12274 6.61087 7.07228C6.73269 7.02182 6.86326 6.99585 6.99512 6.99585C7.12698 6.99585 7.25754 7.02182 7.37937 7.07228C7.50119 7.12274 7.61188 7.1967 7.70512 7.28994C7.79836 7.38318 7.87232 7.49387 7.92278 7.61569C7.97324 7.73751 7.99921 7.86808 7.99921 7.99994C7.99921 8.1318 7.97324 8.26237 7.92278 8.38419C7.87232 8.50601 7.79836 8.6167 7.70512 8.70994L5.40512 10.9999H12.9951C13.2603 10.9999 13.5147 11.1053 13.7022 11.2928C13.8898 11.4804 13.9951 11.7347 13.9951 11.9999Z" fill="#00B2EA"/>
</svg>
