<svg width="24" height="25" viewBox="0 0 24 25" fill="none" xmlns="http://www.w3.org/2000/svg">
<path d="M11.4103 6.81335C11.4103 6.57261 11.2151 6.37745 10.9744 6.37745C10.7336 6.37745 10.5385 6.57261 10.5385 6.81335V9.86463H7.48718C7.24644 9.86463 7.05128 10.0598 7.05128 10.3005C7.05128 10.5413 7.24644 10.7364 7.48718 10.7364H10.5385V13.7877C10.5385 14.0285 10.7336 14.2236 10.9744 14.2236C11.2151 14.2236 11.4103 14.0285 11.4103 13.7877V10.7364H14.4615C14.7023 10.7364 14.8974 10.5413 14.8974 10.3005C14.8974 10.0598 14.7023 9.86463 14.4615 9.86463H11.4103V6.81335Z" fill="#2D3142"/>
<path fill-rule="evenodd" clip-rule="evenodd" d="M6.61538 3.32617C5.17095 3.32617 4 4.49712 4 5.94156V14.6595C4 16.1039 5.17095 17.2749 6.61538 17.2749H15.3333C16.7778 17.2749 17.9487 16.1039 17.9487 14.6595V5.94156C17.9487 4.49712 16.7778 3.32617 15.3333 3.32617H6.61538ZM15.3333 4.19797H6.61538C5.65243 4.19797 4.87179 4.9786 4.87179 5.94156V14.6595C4.87179 15.6225 5.65243 16.4031 6.61538 16.4031H15.3333C16.2963 16.4031 17.0769 15.6225 17.0769 14.6595V5.94156C17.0769 4.9786 16.2963 4.19797 15.3333 4.19797Z" fill="#2D3142"/>
<path d="M21 7.68515C21 7.44441 20.8048 7.24925 20.5641 7.24925C20.3234 7.24925 20.1282 7.44441 20.1282 7.68515V15.5313C20.1282 17.698 18.3718 19.4544 16.2051 19.4544H8.35897C8.11823 19.4544 7.92308 19.6495 7.92308 19.8903C7.92308 20.131 8.11823 20.3262 8.35897 20.3262H16.2051C18.8533 20.3262 21 18.1794 21 15.5313V7.68515Z" fill="#2D3142"/>
</svg>
