<svg width="24" height="24" viewBox="0 0 24 24" fill="none" xmlns="http://www.w3.org/2000/svg">
<path fill-rule="evenodd" clip-rule="evenodd" d="M6.07317 3C4.37591 3 3 4.42499 3 6.1828V16.9069C3 17.7171 3.94578 18.1228 4.49892 17.5499L6.49013 15.4877C6.9018 15.0613 7.46014 14.8218 8.04232 14.8218H8.70732V15.7312C8.70732 17.2379 9.88666 18.4593 11.3415 18.4593H16.8357C17.5343 18.4593 18.2044 18.7467 18.6984 19.2584L20.2505 20.8659C20.5271 21.1523 21 20.9495 21 20.5444V11.639C21 10.1323 19.8207 8.91091 18.3659 8.91091H17.9268V6.1828C17.9268 4.42499 16.5509 3 14.8537 3H6.07317ZM17.0488 8.91091V6.1828C17.0488 4.92722 16.066 3.90937 14.8537 3.90937H6.07317C4.86084 3.90937 3.87805 4.92722 3.87805 6.1828L3.87805 16.9069L5.86926 14.8447C6.44559 14.2478 7.22726 13.9125 8.04232 13.9125H8.70732V11.639C8.70732 10.1323 9.88666 8.91091 11.3415 8.91091H17.0488ZM20.122 11.639C20.122 10.6346 19.3357 9.82028 18.3659 9.82028H11.3415C10.3716 9.82028 9.58537 10.6346 9.58537 11.639V15.7312C9.58537 16.7357 10.3716 17.5499 11.3415 17.5499H16.8357C17.7672 17.5499 18.6606 17.9332 19.3192 18.6153L20.122 19.4467V11.639Z" fill="#6F7388"/>
</svg>
