<svg width="24" height="25" viewBox="0 0 24 25" fill="none" xmlns="http://www.w3.org/2000/svg">
<path fill-rule="evenodd" clip-rule="evenodd" d="M9.86591 10.4853C9.9101 10.3456 10.0195 10.2362 10.1593 10.192L15.1468 8.61454C15.4943 8.50464 15.8214 8.8318 15.7115 9.17929L14.1341 14.1668C14.0899 14.3065 13.9805 14.416 13.8407 14.4602L8.8532 16.0376C8.50572 16.1475 8.17855 15.8204 8.28845 15.4729L9.86591 10.4853ZM9.4078 14.9183L10.6535 10.9796L14.5922 9.73389L13.3465 13.6726L9.4078 14.9183Z" fill="#2D3142"/>
<path fill-rule="evenodd" clip-rule="evenodd" d="M12.45 21.3151C17.0624 21.088 20.7618 17.3886 20.9889 12.7762H21V11.8762H20.9889C20.7618 7.26375 17.0624 3.56435 12.45 3.33723V3.32617H11.55V3.33723C6.93757 3.56435 3.23818 7.26375 3.01105 11.8762H3V12.7762H3.01105C3.23818 17.3886 6.93758 21.088 11.55 21.3151V21.3262H12.45V21.3151ZM11.55 20.4139V19.5262C11.55 19.2776 11.7515 19.0762 12 19.0762C12.2485 19.0762 12.45 19.2776 12.45 19.5262V20.4139C16.5652 20.1885 19.8624 16.8914 20.0877 12.7762H19.2C18.9515 12.7762 18.75 12.5747 18.75 12.3262C18.75 12.0776 18.9515 11.8762 19.2 11.8762H20.0877C19.8624 7.76094 16.5652 4.4638 12.45 4.23846V5.12617C12.45 5.3747 12.2485 5.57617 12 5.57617C11.7515 5.57617 11.55 5.3747 11.55 5.12617V4.23846C7.43477 4.4638 4.13763 7.76094 3.91229 11.8762H4.8C5.04853 11.8762 5.25 12.0776 5.25 12.3262C5.25 12.5747 5.04853 12.7762 4.8 12.7762H3.91229C4.13763 16.8914 7.43477 20.1885 11.55 20.4139Z" fill="#2D3142"/>
</svg>
