<svg width="24" height="24" viewBox="0 0 24 24" fill="none" xmlns="http://www.w3.org/2000/svg">
<path d="M4.05831 13.0915L5.36783 12.309C5.5368 12.2266 5.70578 12.1442 5.91699 12.1442C6.50839 12.1442 6.97306 12.5973 6.97306 13.1738C6.97306 13.5445 6.76185 13.874 6.46615 14.0387L5.15662 14.8212C4.98765 14.9448 4.81868 14.986 4.60746 14.986C4.01606 14.986 3.55139 14.5329 3.55139 13.9564C3.55139 13.5857 3.76261 13.2562 4.05831 13.0915Z" stroke="#00B2EA" stroke-miterlimit="10"/>
<path d="M5.748 14.4916L7.05753 13.7091C7.2265 13.6267 7.39547 13.5444 7.60669 13.5444C8.19809 13.5444 8.66276 13.9974 8.66276 14.574C8.66276 14.9447 8.45154 15.2741 8.15584 15.4389L6.84632 16.2214C6.67735 16.3038 6.50837 16.3861 6.29716 16.3861C5.70576 16.3861 5.24109 15.9331 5.24109 15.3565C5.24109 14.9858 5.4523 14.6564 5.748 14.4916Z" stroke="#00B2EA" stroke-miterlimit="10"/>
<path d="M7.4377 15.892L8.74723 15.1095C8.9162 15.0271 9.08517 14.9448 9.29638 14.9448C9.88778 14.9448 10.3525 15.3978 10.3525 15.9744C10.3525 16.345 10.1412 16.6745 9.84554 16.8393L8.53601 17.6218C8.36704 17.7041 8.19807 17.7865 7.98686 17.7865C7.39546 17.7865 6.93079 17.3335 6.93079 16.7569C6.93079 16.3862 7.142 16.0568 7.4377 15.892Z" stroke="#00B2EA" stroke-miterlimit="10"/>
<path d="M9.54988 17.0038L10.8594 16.2213C11.0284 16.1389 11.1974 16.0566 11.4086 16.0566C12 16.0566 12.4646 16.5096 12.4646 17.0862C12.4646 17.4569 12.2534 17.7863 11.9577 17.9511L10.6482 18.7336C10.4792 18.816 10.3103 18.8983 10.099 18.8983C9.50764 18.8983 9.04297 18.4453 9.04297 17.8687C9.04297 17.5392 9.25418 17.2098 9.54988 17.0038Z" stroke="#00B2EA" stroke-miterlimit="10"/>
<path d="M15.2104 12.6383L18.2519 14.4916L18.8433 14.8623C19.0123 14.9447 19.1813 15.027 19.3925 15.027C19.9839 15.027 20.4485 14.574 20.4485 13.9974C20.4485 13.6268 20.2373 13.2973 19.9416 13.1325L11.7465 8.19036L10.7327 9.05524V10.4555C10.7327 11.1557 10.1835 11.6911 9.46541 11.6911H8.19812V8.39628C8.19812 8.02562 8.36709 7.69614 8.66279 7.44903L11.1974 5.38979C11.4086 5.22506 11.7043 5.1015 12 5.1015C12.1267 5.1015 12.2534 5.14269 12.4224 5.18387L16.351 6.50178C17.6183 6.91363 19.0545 6.83126 20.2796 6.25468L21.7158 5.51335" stroke="#00B2EA" stroke-miterlimit="10"/>
<path d="M2.28406 5.51335L3.76256 6.25468C4.9876 6.83126 6.38161 6.95482 7.69114 6.50178L11.6197 5.18387C11.7465 5.14269 11.8732 5.1015 12.0422 5.1015" stroke="#00B2EA" stroke-miterlimit="10"/>
<path d="M15.2104 12.6384L18.2519 14.4917C18.5476 14.6564 18.7588 14.9859 18.7588 15.3566C18.7588 15.9331 18.2941 16.3862 17.7027 16.3862C17.4915 16.3862 17.3225 16.345 17.1535 16.2214L16.5621 15.8508L14.1121 14.3681" stroke="#00B2EA" stroke-miterlimit="10"/>
<path d="M13.0138 16.1391L14.4501 17.004L15.4639 17.6218C15.6329 17.7041 15.8018 17.7865 16.013 17.7865C16.6044 17.7865 17.0691 17.3335 17.0691 16.7569C17.0691 16.3862 16.8579 16.0568 16.5622 15.892L14.1121 14.4094" stroke="#00B2EA" stroke-miterlimit="10"/>
<path d="M3.97384 13.1326C3.42468 12.7208 2.74879 12.5148 2.07291 12.5148H1.86169" stroke="#00B2EA" stroke-miterlimit="10"/>
<path d="M20.0261 13.1326C20.5753 12.7208 21.2512 12.5148 21.9271 12.5148H22.1383" stroke="#00B2EA" stroke-miterlimit="10"/>
<path d="M13.3518 18.7751L12 17.9514" stroke="#00B2EA" stroke-miterlimit="10"/>
<path d="M13.0138 16.1391L14.4501 17.004C14.7457 17.1687 14.957 17.4982 14.957 17.8689C14.957 18.4454 14.4923 18.8985 13.9009 18.8985C13.6897 18.8985 13.5207 18.8573 13.3517 18.7337" stroke="#00B2EA" stroke-miterlimit="10"/>
<path d="M9.46541 10.0436H8.19812" stroke="#00B2EA" stroke-miterlimit="10"/>
</svg>
