<svg width="20" height="20" viewBox="0 0 20 20" fill="none" xmlns="http://www.w3.org/2000/svg">
<path d="M15.8334 1.66669H4.16669C3.50365 1.66669 2.86776 1.93008 2.39892 2.39892C1.93008 2.86776 1.66669 3.50365 1.66669 4.16669V12.5C1.66669 13.1631 1.93008 13.7989 2.39892 14.2678C2.86776 14.7366 3.50365 15 4.16669 15H13.825L16.9084 18.0917C16.9862 18.1689 17.0786 18.23 17.1801 18.2715C17.2816 18.313 17.3903 18.334 17.5 18.3334C17.6093 18.3362 17.7178 18.3133 17.8167 18.2667C17.9689 18.2042 18.0991 18.098 18.1911 17.9616C18.283 17.8251 18.3325 17.6645 18.3334 17.5V4.16669C18.3334 3.50365 18.07 2.86776 17.6011 2.39892C17.1323 1.93008 16.4964 1.66669 15.8334 1.66669ZM16.6667 15.4917L14.7584 13.575C14.6805 13.4978 14.5881 13.4367 14.4866 13.3952C14.3851 13.3537 14.2764 13.3327 14.1667 13.3334H4.16669C3.94567 13.3334 3.73371 13.2456 3.57743 13.0893C3.42115 12.933 3.33335 12.721 3.33335 12.5V4.16669C3.33335 3.94567 3.42115 3.73371 3.57743 3.57743C3.73371 3.42115 3.94567 3.33335 4.16669 3.33335H15.8334C16.0544 3.33335 16.2663 3.42115 16.4226 3.57743C16.5789 3.73371 16.6667 3.94567 16.6667 4.16669V15.4917Z" fill="#B0B3C7"/>
</svg>
