<svg width="20" height="20" viewBox="0 0 20 20" fill="none" xmlns="http://www.w3.org/2000/svg">
<path d="M15 1.66669H5.00002C4.77901 1.66669 4.56705 1.75448 4.41076 1.91076C4.25448 2.06704 4.16669 2.27901 4.16669 2.50002V17.5C4.16668 17.6593 4.21233 17.8153 4.29823 17.9494C4.38414 18.0836 4.50669 18.1903 4.65139 18.257C4.79608 18.3236 4.95684 18.3474 5.11463 18.3255C5.27242 18.3036 5.42063 18.2369 5.54169 18.1334L10 14.3917L14.4084 18.0917C14.4862 18.1689 14.5786 18.23 14.6801 18.2715C14.7816 18.313 14.8903 18.334 15 18.3334C15.1093 18.3362 15.2178 18.3133 15.3167 18.2667C15.4689 18.2042 15.5991 18.098 15.6911 17.9616C15.783 17.8251 15.8325 17.6645 15.8334 17.5V2.50002C15.8334 2.27901 15.7456 2.06704 15.5893 1.91076C15.433 1.75448 15.221 1.66669 15 1.66669ZM14.1667 15.7167L10.5334 12.6667C10.3836 12.542 10.1949 12.4737 10 12.4737C9.80514 12.4737 9.61643 12.542 9.46669 12.6667L5.83335 15.7167V3.33335H14.1667V15.7167Z" fill="#B0B3C7"/>
</svg>
