<svg width="21" height="20" viewBox="0 0 21 20" fill="none" xmlns="http://www.w3.org/2000/svg">
<path d="M15.8944 1.44476L3.52003 5.56955C3.03242 5.73308 2.60711 6.04302 2.30209 6.4571C1.99707 6.87118 1.82718 7.36926 1.81558 7.88343C1.80398 8.3976 1.95124 8.90284 2.23728 9.33025C2.52332 9.75767 2.93422 10.0865 3.41396 10.2718L7.99248 12.0219C8.10107 12.0663 8.19973 12.1319 8.28269 12.2149C8.36565 12.2978 8.43125 12.3965 8.47567 12.5051L10.2258 17.0836C10.3751 17.4725 10.6192 17.818 10.936 18.0885C11.2528 18.3591 11.6322 18.5462 12.0397 18.6328C12.4471 18.7195 12.8698 18.7029 13.2693 18.5847C13.6687 18.4664 14.0323 18.2502 14.327 17.9557C14.6001 17.677 14.8075 17.3408 14.9339 16.9716L19.0587 4.59728C19.2041 4.15745 19.2245 3.68587 19.1175 3.23515C19.0105 2.78443 18.7804 2.3723 18.4528 2.04473C18.1253 1.71717 17.7131 1.48706 17.2624 1.38008C16.8117 1.2731 16.3401 1.29345 15.9003 1.43887L15.8944 1.44476ZM17.4736 4.07284L13.3488 16.4472C13.2925 16.6076 13.1885 16.7468 13.0508 16.8464C12.9131 16.946 12.7482 17.0011 12.5783 17.0043C12.4084 17.0075 12.2415 16.9586 12.1002 16.8643C11.9588 16.77 11.8496 16.6348 11.7873 16.4767L10.0313 11.9041C10.0073 11.8436 9.97974 11.7845 9.94881 11.7273L14.0088 7.6673C14.1651 7.51102 14.2529 7.29906 14.2529 7.07805C14.2529 6.85703 14.1651 6.64507 14.0088 6.48879C13.8525 6.33251 13.6405 6.24471 13.4195 6.24471C13.1985 6.24471 12.9865 6.33251 12.8303 6.48879L8.7703 10.5488C8.71303 10.5178 8.65401 10.4903 8.59352 10.4663L4.0209 8.71029C3.86279 8.64796 3.72752 8.53879 3.63323 8.39741C3.53893 8.25603 3.49011 8.0892 3.49331 7.91929C3.49652 7.74938 3.5516 7.58451 3.65116 7.44678C3.75073 7.30906 3.89002 7.20507 4.05036 7.14876L16.4247 3.02397C16.5707 2.9769 16.7268 2.97102 16.8759 3.00699C17.025 3.04296 17.1613 3.11938 17.2697 3.22783C17.3782 3.33628 17.4546 3.47255 17.4906 3.62165C17.5266 3.77074 17.5207 3.92687 17.4736 4.07284Z" fill="#B0B3C7"/>
</svg>
