<svg width="18" height="18" viewBox="0 0 18 18" fill="none" xmlns="http://www.w3.org/2000/svg">
<path d="M5.63756 13.5747V17.1736H1.47498V3.39725C1.47498 3.1211 1.69883 2.89725 1.97498 2.89725H11.568C11.8441 2.89725 12.068 3.12111 12.068 3.39725V17.1736H8.06986V13.5747V13.0747H7.56986H6.13756H5.63756V13.5747Z" stroke="#00B2EA"/>
<path d="M10.322 2.89725H10.822V2.39725V1.2586C10.822 0.927229 10.5534 0.6586 10.222 0.6586H3.32095C2.98958 0.6586 2.72095 0.927229 2.72095 1.2586V2.39725V2.89725H3.22095H10.322Z" stroke="#00B2EA"/>
<path d="M12.0841 6.64542H15.025C16.1296 6.64542 17.025 7.54085 17.025 8.64542V17.6736" stroke="#00B2EA"/>
<path d="M4.15637 4.96097L4.15637 7.49112" stroke="#00B2EA"/>
<path d="M4.15637 8.77029L4.15637 11.3004" stroke="#00B2EA"/>
<path d="M6.77148 4.96097L6.77148 7.49112" stroke="#00B2EA"/>
<path d="M6.77148 8.77029L6.77148 11.3004" stroke="#00B2EA"/>
<path d="M9.3866 4.96097L9.3866 7.49112" stroke="#00B2EA"/>
<path d="M13.1813 9.03909L15.7114 9.03909" stroke="#00B2EA"/>
<path d="M13.1813 11.7328L15.7114 11.7328" stroke="#00B2EA"/>
<path d="M13.1813 14.4267L15.7114 14.4267" stroke="#00B2EA"/>
<path d="M13.1813 17.1204L15.7114 17.1204" stroke="#00B2EA"/>
<path d="M9.3866 8.77029L9.3866 11.3004" stroke="#00B2EA"/>
</svg>
