<svg width="37" height="36" viewBox="0 0 37 36" fill="none" xmlns="http://www.w3.org/2000/svg">
<rect x="0.5" width="36" height="36" rx="18" fill="#00B2EA"/>
<path fill-rule="evenodd" clip-rule="evenodd" d="M18 11C18.5917 11 19.0714 11.4797 19.0714 12.0714V17.4286H24.4286C25.0203 17.4286 25.5 17.9083 25.5 18.5C25.5 19.0917 25.0203 19.5714 24.4286 19.5714H19.0714V24.9286C19.0714 25.5203 18.5917 26 18 26C17.4083 26 16.9286 25.5203 16.9286 24.9286V19.5714H11.5714C10.9797 19.5714 10.5 19.0917 10.5 18.5C10.5 17.9083 10.9797 17.4286 11.5714 17.4286H16.9286V12.0714C16.9286 11.4797 17.4083 11 18 11Z" fill="white"/>
</svg>
