<svg width="22" height="22" viewBox="0 0 22 22" fill="none" xmlns="http://www.w3.org/2000/svg">
<circle cx="11" cy="11" r="11" fill="url(#paint0_linear_5750_6592)"/>
<path d="M11.3666 21.9941V11.8486L15.2963 14.1074V21.1293C14.0826 21.6448 12.7572 21.9486 11.3666 21.9941Z" fill="url(#paint1_linear_5750_6592)"/>
<path d="M9.75946 21.9309V4.79655L12.778 2.03635V21.8571C12.1992 21.9511 11.6053 22 11 22C10.5805 22 10.1666 21.9765 9.75946 21.9309Z" fill="url(#paint2_linear_5750_6592)"/>
<path d="M16.1333 20.7313V8.61667H16.8666V20.3066C16.6282 20.4572 16.3836 20.5989 16.1333 20.7313Z" fill="url(#paint3_linear_5750_6592)"/>
<path d="M16.8666 20.3066V8.61667H17.6V19.8008C17.3628 19.979 17.1182 20.1478 16.8666 20.3066Z" fill="url(#paint4_linear_5750_6592)"/>
<path d="M16.1333 6.60001L17.6 8.61667V13.0167H16.1333V6.60001Z" fill="url(#paint5_linear_5750_6592)"/>
<path d="M10.1848 21.9703V11.2822H11.8002V21.9714C11.5359 21.9904 11.2691 22.0001 11 22.0001C10.7258 22.0001 10.454 21.99 10.1848 21.9703Z" fill="url(#paint6_linear_5750_6592)"/>
<path d="M11.8 21.9714V11.2822H13.4154V21.734C12.8902 21.8517 12.3507 21.9318 11.8 21.9714Z" fill="url(#paint7_linear_5750_6592)"/>
<path d="M13.4155 9.61591L10.1848 11.2829V16.2329H13.4155V9.61591Z" fill="url(#paint8_linear_5750_6592)"/>
<path d="M9.59178 21.9108C9.39244 21.8853 9.19476 21.8545 8.9989 21.8185V11.2823H9.59178V21.9108Z" fill="url(#paint9_linear_5750_6592)"/>
<path d="M10.1846 21.9703C9.98541 21.9557 9.78773 21.9358 9.59167 21.9108V11.2823H10.1846V21.9703Z" fill="url(#paint10_linear_5750_6592)"/>
<path d="M8.99908 11.2822H10.1848V20.3067H8.99908V11.2822Z" fill="url(#paint11_linear_5750_6592)"/>
<path d="M12.2359 9.61439L8.99548 11.2824H10.2009L13.418 9.61452L12.2359 9.61439Z" fill="white"/>
<path d="M12.3438 9.81908L9.99379 11.0823C9.64496 10.4334 9.88825 9.62451 10.5372 9.27568C11.1861 8.92686 11.995 9.17014 12.3438 9.81908Z" fill="url(#paint12_linear_5750_6592)"/>
<path d="M8.25 21.6534C8.00206 21.5896 7.75751 21.5174 7.51666 21.437V10.6333H8.25V21.6534Z" fill="url(#paint13_linear_5750_6592)"/>
<path d="M7.51666 21.437C7.26815 21.3541 7.02359 21.2626 6.78333 21.1628V10.6333H7.51666V21.437Z" fill="url(#paint14_linear_5750_6592)"/>
<path d="M6.78333 8.61667L8.24999 10.6333V13.75H6.78333V8.61667Z" fill="url(#paint15_linear_5750_6592)"/>
<path d="M6.78332 21.1628C6.27396 20.9512 5.78394 20.7025 5.31665 20.42V10.6333L6.78332 8.61667V21.1628Z" fill="url(#paint16_linear_5750_6592)"/>
<path d="M3.84998 19.3595V15.7667H5.31664V20.42C4.79825 20.1065 4.30782 19.7515 3.84998 19.3595Z" fill="url(#paint17_linear_5750_6592)"/>
<path d="M5.31665 20.42V15.7667H6.78332V21.1628C6.27397 20.9512 5.78395 20.7025 5.31665 20.42Z" fill="url(#paint18_linear_5750_6592)"/>
<path d="M6.78333 15.7667L5.31666 14.3L3.84999 15.7667V18.8833H6.78333V15.7667Z" fill="url(#paint19_linear_5750_6592)"/>
<defs>
<linearGradient id="paint0_linear_5750_6592" x1="11" y1="0" x2="11" y2="22" gradientUnits="userSpaceOnUse">
<stop stop-color="#00B2EA"/>
<stop offset="1" stop-color="#00B2EA" stop-opacity="0.5"/>
</linearGradient>
<linearGradient id="paint1_linear_5750_6592" x1="14.1272" y1="13.42" x2="12.2009" y2="22.4654" gradientUnits="userSpaceOnUse">
<stop stop-color="#B7EEFF"/>
<stop offset="1" stop-color="#00B6EF"/>
</linearGradient>
<linearGradient id="paint2_linear_5750_6592" x1="12.7417" y1="6.50832" x2="9.71667" y2="6.50832" gradientUnits="userSpaceOnUse">
<stop stop-color="#D3F5FF"/>
<stop offset="1" stop-color="#74DEFF"/>
</linearGradient>
<linearGradient id="paint3_linear_5750_6592" x1="16.5" y1="8.61667" x2="16.5" y2="22.1833" gradientUnits="userSpaceOnUse">
<stop stop-color="#CBF3FF"/>
<stop offset="0.16897" stop-color="white"/>
<stop offset="1" stop-color="#FBFEFF"/>
</linearGradient>
<linearGradient id="paint4_linear_5750_6592" x1="17.2333" y1="8.61667" x2="17.2333" y2="22.1833" gradientUnits="userSpaceOnUse">
<stop stop-color="#A5EAFF"/>
<stop offset="0.16897" stop-color="#48D3FF"/>
<stop offset="1" stop-color="#4AD4FF"/>
</linearGradient>
<linearGradient id="paint5_linear_5750_6592" x1="16.8666" y1="6.60001" x2="16.8666" y2="13.0167" gradientUnits="userSpaceOnUse">
<stop stop-color="#B0EBFD"/>
<stop offset="0.490637" stop-color="#85E2FF"/>
<stop offset="1" stop-color="#85E2FF" stop-opacity="0"/>
</linearGradient>
<linearGradient id="paint6_linear_5750_6592" x1="10.9925" y1="13.5511" x2="10.9925" y2="22.0001" gradientUnits="userSpaceOnUse">
<stop stop-color="#CBF3FF"/>
<stop offset="1" stop-color="#FBFEFF"/>
</linearGradient>
<linearGradient id="paint7_linear_5750_6592" x1="12.6077" y1="11.2822" x2="12.6077" y2="28.0028" gradientUnits="userSpaceOnUse">
<stop stop-color="#A5EAFF"/>
<stop offset="1" stop-color="#48D3FF"/>
</linearGradient>
<linearGradient id="paint8_linear_5750_6592" x1="11.8002" y1="9.26535" x2="11.8002" y2="16.2329" gradientUnits="userSpaceOnUse">
<stop stop-color="#85E2FF"/>
<stop offset="0.387798" stop-color="#85E2FF"/>
<stop offset="1" stop-color="#85E2FF" stop-opacity="0"/>
</linearGradient>
<linearGradient id="paint9_linear_5750_6592" x1="9.29534" y1="11.2823" x2="9.29534" y2="28.0028" gradientUnits="userSpaceOnUse">
<stop stop-color="#CBF3FF"/>
<stop offset="0.373255" stop-color="#CCF3FF"/>
<stop offset="1" stop-color="#CCF3FF"/>
</linearGradient>
<linearGradient id="paint10_linear_5750_6592" x1="9.88811" y1="11.2823" x2="9.88811" y2="28.0028" gradientUnits="userSpaceOnUse">
<stop stop-color="#48D3FF"/>
<stop offset="1" stop-color="#4AD4FF"/>
</linearGradient>
<linearGradient id="paint11_linear_5750_6592" x1="10.1848" y1="13.4988" x2="8.78901" y2="14.0037" gradientUnits="userSpaceOnUse">
<stop stop-color="#55D7FF"/>
<stop offset="1" stop-color="#85E2FF" stop-opacity="0"/>
</linearGradient>
<linearGradient id="paint12_linear_5750_6592" x1="10.853" y1="9.09866" x2="10.853" y2="11.0823" gradientUnits="userSpaceOnUse">
<stop stop-color="white"/>
<stop offset="1" stop-color="#4FD5FF"/>
</linearGradient>
<linearGradient id="paint13_linear_5750_6592" x1="7.88333" y1="10.6333" x2="7.88333" y2="24.0167" gradientUnits="userSpaceOnUse">
<stop stop-color="#CBF3FF"/>
<stop offset="0.16897" stop-color="white"/>
<stop offset="1" stop-color="#FBFEFF"/>
</linearGradient>
<linearGradient id="paint14_linear_5750_6592" x1="7.14999" y1="10.6333" x2="7.14999" y2="24.0167" gradientUnits="userSpaceOnUse">
<stop stop-color="#A5EAFF"/>
<stop offset="0.453125" stop-color="#48D3FF"/>
<stop offset="1" stop-color="#4AD4FF"/>
</linearGradient>
<linearGradient id="paint15_linear_5750_6592" x1="7.51666" y1="8.61667" x2="7.51666" y2="13.75" gradientUnits="userSpaceOnUse">
<stop stop-color="#85E2FF"/>
<stop offset="0.404207" stop-color="#85E2FF"/>
<stop offset="1" stop-color="#85E2FF" stop-opacity="0"/>
</linearGradient>
<linearGradient id="paint16_linear_5750_6592" x1="6.04998" y1="8.61667" x2="6.04998" y2="21.1628" gradientUnits="userSpaceOnUse">
<stop stop-color="#D3F5FF"/>
<stop offset="0.437039" stop-color="#85E2FF"/>
<stop offset="1" stop-color="#85E2FF"/>
</linearGradient>
<linearGradient id="paint17_linear_5750_6592" x1="4.58331" y1="15.7667" x2="4.58331" y2="20.7903" gradientUnits="userSpaceOnUse">
<stop stop-color="#C8F2FF"/>
<stop offset="1" stop-color="#D8F6FF"/>
</linearGradient>
<linearGradient id="paint18_linear_5750_6592" x1="6.04998" y1="15.7667" x2="6.04998" y2="24.0167" gradientUnits="userSpaceOnUse">
<stop stop-color="#A5EAFF"/>
<stop offset="1" stop-color="#48D3FF"/>
</linearGradient>
<linearGradient id="paint19_linear_5750_6592" x1="5.31666" y1="13.75" x2="5.31666" y2="18.8833" gradientUnits="userSpaceOnUse">
<stop stop-color="#85E2FF"/>
<stop offset="0.404207" stop-color="#85E2FF"/>
<stop offset="1" stop-color="#85E2FF" stop-opacity="0"/>
</linearGradient>
</defs>
</svg>
