<svg width="20" height="20" viewBox="0 0 20 20" fill="none" xmlns="http://www.w3.org/2000/svg">
<path d="M10.25 10.1834C10.6947 9.79853 11.0513 9.32249 11.2957 8.7876C11.5402 8.25272 11.6667 7.67151 11.6667 7.08342C11.6667 5.97835 11.2277 4.91854 10.4463 4.13714C9.66489 3.35574 8.60508 2.91675 7.50001 2.91675C6.39494 2.91675 5.33513 3.35574 4.55373 4.13714C3.77233 4.91854 3.33334 5.97835 3.33334 7.08342C3.33334 7.67151 3.45984 8.25272 3.70428 8.7876C3.94872 9.32249 4.30536 9.79853 4.75001 10.1834C3.58346 10.7117 2.59373 11.5647 1.89916 12.6405C1.20459 13.7164 0.83457 14.9695 0.833344 16.2501C0.833344 16.4711 0.921141 16.6831 1.07742 16.8393C1.2337 16.9956 1.44566 17.0834 1.66668 17.0834C1.88769 17.0834 2.09965 16.9956 2.25593 16.8393C2.41221 16.6831 2.50001 16.4711 2.50001 16.2501C2.50001 14.924 3.02679 13.6522 3.96448 12.7145C4.90216 11.7769 6.17393 11.2501 7.50001 11.2501C8.82609 11.2501 10.0979 11.7769 11.0355 12.7145C11.9732 13.6522 12.5 14.924 12.5 16.2501C12.5 16.4711 12.5878 16.6831 12.7441 16.8393C12.9004 16.9956 13.1123 17.0834 13.3333 17.0834C13.5544 17.0834 13.7663 16.9956 13.9226 16.8393C14.0789 16.6831 14.1667 16.4711 14.1667 16.2501C14.1654 14.9695 13.7954 13.7164 13.1009 12.6405C12.4063 11.5647 11.4166 10.7117 10.25 10.1834ZM7.50001 9.58342C7.00556 9.58342 6.52221 9.43679 6.11108 9.16209C5.69996 8.88739 5.37953 8.49694 5.19031 8.04012C5.00109 7.58331 4.95158 7.08064 5.04805 6.59569C5.14451 6.11074 5.38261 5.66528 5.73224 5.31565C6.08187 4.96602 6.52733 4.72792 7.01228 4.63145C7.49724 4.53499 7.9999 4.5845 8.45672 4.77372C8.91353 4.96294 9.30398 5.28337 9.57868 5.69449C9.85339 6.10561 10 6.58896 10 7.08342C10 7.74646 9.73662 8.38234 9.26778 8.85118C8.79894 9.32002 8.16305 9.58342 7.50001 9.58342ZM15.6167 9.85008C16.15 9.24952 16.4984 8.50763 16.6198 7.7137C16.7413 6.91977 16.6308 6.10764 16.3015 5.37508C15.9722 4.64252 15.4382 4.02074 14.7637 3.5846C14.0893 3.14846 13.3032 2.91653 12.5 2.91675C12.279 2.91675 12.067 3.00455 11.9108 3.16083C11.7545 3.31711 11.6667 3.52907 11.6667 3.75008C11.6667 3.9711 11.7545 4.18306 11.9108 4.33934C12.067 4.49562 12.279 4.58342 12.5 4.58342C13.1631 4.58342 13.7989 4.84681 14.2678 5.31565C14.7366 5.78449 15 6.42037 15 7.08342C14.9988 7.52112 14.8828 7.95083 14.6634 8.3296C14.444 8.70836 14.1291 9.0229 13.75 9.24175C13.6265 9.31302 13.5233 9.4148 13.4503 9.53737C13.3774 9.65993 13.3371 9.79917 13.3333 9.94175C13.3299 10.0832 13.3625 10.2232 13.4281 10.3486C13.4937 10.474 13.5901 10.5806 13.7083 10.6584L14.0333 10.8751L14.1417 10.9334C15.1462 11.4098 15.9936 12.1634 16.5842 13.1053C17.1747 14.0473 17.4838 15.1384 17.475 16.2501C17.475 16.4711 17.5628 16.6831 17.7191 16.8393C17.8754 16.9956 18.0873 17.0834 18.3083 17.0834C18.5294 17.0834 18.7413 16.9956 18.8976 16.8393C19.0539 16.6831 19.1417 16.4711 19.1417 16.2501C19.1485 14.9713 18.8282 13.712 18.2112 12.5918C17.5943 11.4716 16.7011 10.5278 15.6167 9.85008Z" fill="#B0B3C7"/>
</svg>
