<svg width="24" height="24" viewBox="0 0 24 24" fill="none" xmlns="http://www.w3.org/2000/svg">
<path d="M12.2256 3.06993L14.0412 6.9318L18.2171 7.28288C18.4895 7.32677 18.6257 7.63396 18.3987 7.8095L15.3575 10.7498L16.1292 14.5678C16.1746 14.8311 15.9022 15.0066 15.6753 14.9188L11.9532 13.1196L8.23122 14.9188C8.00426 15.0505 7.73192 14.8311 7.77731 14.5678L8.54895 10.7498L5.50778 7.8095C5.28083 7.63396 5.37161 7.32677 5.68935 7.28288L9.86528 6.9318L11.6809 3.06993C11.7717 2.85051 12.1348 2.85051 12.2256 3.06993Z" stroke="#00B2EA" stroke-miterlimit="10" stroke-linejoin="round"/>
<path d="M12.2255 14.8747L10.8184 16.2351L11.5446 19.7898C11.59 20.0092 11.3177 20.2286 11.1361 20.097L7.68643 18.4294L4.23675 20.097C4.0098 20.1848 3.78285 20.0092 3.82824 19.7898L4.55449 16.279L1.74027 13.5581C1.55871 13.3826 1.64949 13.0754 1.92183 13.0754L5.78003 12.7243L6.59706 10.9689" stroke="#00B2EA" stroke-miterlimit="10" stroke-linejoin="round"/>
<path d="M17.7632 10.2668L19.0796 13.1193L22.1661 13.3826C22.3477 13.3826 22.4385 13.6459 22.3023 13.7775L20.0328 15.9279L20.5775 18.7365C20.6228 18.9121 20.3959 19.0876 20.2597 18.9998L17.5363 17.6833L14.8129 18.9998C14.6313 19.0876 14.4497 18.956 14.4951 18.7365L14.9944 16.2351" stroke="#00B2EA" stroke-miterlimit="10" stroke-linejoin="round"/>
</svg>
