<svg width="24" height="24" viewBox="0 0 24 24" fill="none" xmlns="http://www.w3.org/2000/svg">
<path d="M8.63756 16.5747V20.1736H4.47498V6.39722C4.47498 6.12107 4.69883 5.89722 4.97498 5.89722H14.568C14.8441 5.89722 15.068 6.12107 15.068 6.39722V20.1736H11.0699V16.5747V16.0747H10.5699H9.13756H8.63756V16.5747Z" stroke="#6F7388"/>
<path d="M13.322 5.89722H13.822V5.39722V4.25857C13.822 3.9272 13.5534 3.65857 13.222 3.65857H6.32095C5.98958 3.65857 5.72095 3.9272 5.72095 4.25857V5.39722V5.89722H6.22095H13.322Z" stroke="#6F7388"/>
<path d="M15.0841 9.64539H18.025C19.1296 9.64539 20.025 10.5408 20.025 11.6454V20.6736" stroke="#6F7388"/>
<path d="M7.15637 7.96094L7.15637 10.4911" stroke="#6F7388"/>
<path d="M7.15637 11.7703L7.15637 14.3004" stroke="#6F7388"/>
<path d="M9.77148 7.96094L9.77148 10.4911" stroke="#6F7388"/>
<path d="M9.77148 11.7703L9.77148 14.3004" stroke="#6F7388"/>
<path d="M12.3866 7.96094L12.3866 10.4911" stroke="#6F7388"/>
<path d="M16.1813 12.0391L18.7114 12.0391" stroke="#6F7388"/>
<path d="M16.1813 14.7328L18.7114 14.7328" stroke="#6F7388"/>
<path d="M16.1813 17.4266L18.7114 17.4266" stroke="#6F7388"/>
<path d="M16.1813 20.1204L18.7114 20.1204" stroke="#6F7388"/>
<path d="M12.3866 11.7703L12.3866 14.3004" stroke="#6F7388"/>
</svg>
