<svg width="24" height="24" viewBox="0 0 24 24" fill="none" xmlns="http://www.w3.org/2000/svg">
<path fill-rule="evenodd" clip-rule="evenodd" d="M6.75552 4.23859H19.5352C20.0874 4.23859 20.5352 4.6863 20.5352 5.23859V13.5041C20.5352 14.0564 20.0874 14.5041 19.5352 14.5041H12.8262V15.5041H19.5352C20.6397 15.5041 21.5352 14.6087 21.5352 13.5041V5.23859C21.5352 4.13402 20.6397 3.23859 19.5352 3.23859H6.75552C5.65095 3.23859 4.75552 4.13402 4.75552 5.23859V5.82049H5.75552V5.23859C5.75552 4.6863 6.20324 4.23859 6.75552 4.23859Z" fill="#6F7388"/>
<path d="M11.3931 17.3602L10.8931 17.3602L10.8931 18.3602L11.3931 18.3602L11.3931 17.3602ZM19.1989 18.3602C19.4751 18.3602 19.6989 18.1363 19.6989 17.8602C19.6989 17.584 19.4751 17.3602 19.1989 17.3602L19.1989 18.3602ZM11.3931 18.3602L19.1989 18.3602L19.1989 17.3602L11.3931 17.3602L11.3931 18.3602Z" fill="#6F7388"/>
<rect x="2.96484" y="7.51654" width="8.17831" height="12.7449" rx="1.5" stroke="#6F7388"/>
<rect x="6.11951" y="16.2443" width="1.86904" height="1.86904" rx="0.934522" fill="#6F7388"/>
</svg>
