<svg width="24" height="24" viewBox="0 0 24 24" fill="none" xmlns="http://www.w3.org/2000/svg">
<path d="M15.0639 10.9891C14.4849 11.5668 13.5681 11.5668 13.0374 10.9891C12.4584 10.4114 12.4584 9.49674 13.0374 8.9672C13.6164 8.38952 14.5331 8.38952 15.0639 8.9672C15.6429 9.49674 15.6429 10.4114 15.0639 10.9891Z" stroke="#6F7388" stroke-miterlimit="10" stroke-linecap="round" stroke-linejoin="round"/>
<path d="M9.61165 16.4289C11.6864 15.8512 15.0639 13.7331 17.2352 11.5186C21.1917 7.57116 21.2399 2.8053 21.2399 2.8053C21.2399 2.8053 16.4632 2.8053 12.5067 6.75278C10.2872 8.96722 8.16415 12.337 7.58514 14.3589L9.61165 16.4289Z" stroke="#6F7388" stroke-miterlimit="10" stroke-linecap="round" stroke-linejoin="round"/>
<path d="M9.61166 10.3151L3.96639 10.4595L2.76013 13.6849L4.93139 13.1072L7.58515 14.3589" stroke="#6F7388" stroke-miterlimit="10" stroke-linecap="round" stroke-linejoin="round"/>
<path d="M13.6646 14.407L13.5199 19.9912L10.3354 21.1947L10.9144 19.0766L9.6116 16.4289" stroke="#6F7388" stroke-miterlimit="10" stroke-linecap="round" stroke-linejoin="round"/>
<path d="M11.0109 13.011L6.90967 17.1029" stroke="#6F7388" stroke-miterlimit="10" stroke-linecap="round" stroke-linejoin="round"/>
</svg>
