<svg width="24" height="24" viewBox="0 0 24 24" fill="none" xmlns="http://www.w3.org/2000/svg">
<path d="M8.28491 11.1681C8.28491 10.8658 8.52997 10.6208 8.83226 10.6208H15.1677C15.47 10.6208 15.7151 10.8658 15.7151 11.1681V16.2628C15.7151 18.3145 14.0518 19.9778 12 19.9778C9.94821 19.9778 8.28491 18.3145 8.28491 16.2628V11.1681ZM14.3187 6.34095C14.3187 7.62156 13.2806 8.65969 11.9999 8.65969C10.7193 8.65969 9.68121 7.62156 9.68121 6.34095C9.68121 5.06035 10.7193 4.02222 11.9999 4.02222C13.2806 4.02222 14.3187 5.06035 14.3187 6.34095Z" stroke="#6F7388"/>
<path d="M7.03321 17.2779C6.63986 17.5193 6.177 17.6585 5.68163 17.6585C4.2527 17.6585 3.09433 16.5002 3.09433 15.0712V10.8754H6.95394C7.0083 10.5238 7.15901 10.2041 7.37824 9.94404H3.03727C2.5544 9.94404 2.16296 10.3355 2.16296 10.8183V15.0712C2.16296 17.0145 3.73832 18.5899 5.68163 18.5899C6.26962 18.5899 6.82392 18.4457 7.3111 18.1907C7.19106 17.8991 7.09744 17.5938 7.03321 17.2779Z" fill="#6F7388"/>
<path fill-rule="evenodd" clip-rule="evenodd" d="M3.32865 6.78875C3.32865 7.81839 3.98998 8.69356 4.91105 9.01268C5.15249 9.09632 5.41177 9.14177 5.68167 9.14177C5.95157 9.14177 6.21085 9.09632 6.45229 9.01268C7.37335 8.69356 8.03469 7.81839 8.03469 6.78875C8.03469 5.48921 6.9812 4.43573 5.68167 4.43573C4.38213 4.43573 3.32865 5.48921 3.32865 6.78875ZM4.26001 6.78875C4.26001 7.57391 4.89651 8.2104 5.68167 8.2104C6.46683 8.2104 7.10332 7.57391 7.10332 6.78875C7.10332 6.00359 6.46683 5.36709 5.68167 5.36709C4.89651 5.36709 4.26001 6.00359 4.26001 6.78875Z" fill="#6F7388"/>
<path d="M16.9664 17.2779C17.3597 17.5193 17.8226 17.6585 18.318 17.6585C19.7469 17.6585 20.9053 16.5002 20.9053 15.0712V10.8754H17.0457C16.9913 10.5238 16.8406 10.2041 16.6214 9.94404H20.9623C21.4452 9.94404 21.8366 10.3355 21.8366 10.8183V15.0712C21.8366 17.0145 20.2613 18.5899 18.318 18.5899C17.73 18.5899 17.1757 18.4457 16.6885 18.1907C16.8085 17.8991 16.9022 17.5938 16.9664 17.2779Z" fill="#6F7388"/>
<path fill-rule="evenodd" clip-rule="evenodd" d="M20.671 6.78875C20.671 7.81839 20.0096 8.69356 19.0886 9.01268C18.8471 9.09632 18.5878 9.14177 18.3179 9.14177C18.048 9.14177 17.7888 9.09632 17.5473 9.01268C16.6263 8.69356 15.9649 7.81839 15.9649 6.78875C15.9649 5.48921 17.0184 4.43573 18.3179 4.43573C19.6175 4.43573 20.671 5.48921 20.671 6.78875ZM19.7396 6.78875C19.7396 7.57391 19.1031 8.2104 18.3179 8.2104C17.5328 8.2104 16.8963 7.57391 16.8963 6.78875C16.8963 6.00359 17.5328 5.36709 18.3179 5.36709C19.1031 5.36709 19.7396 6.00359 19.7396 6.78875Z" fill="#6F7388"/>
</svg>
