<svg width="24" height="24" viewBox="0 0 24 24" fill="none" xmlns="http://www.w3.org/2000/svg">
<path fill-rule="evenodd" clip-rule="evenodd" d="M11.9871 3.1104L12.0234 10.7456C11.8189 10.7603 11.6231 10.8084 11.4419 10.8845C11.4093 10.8487 11.3728 10.8078 11.3332 10.762C11.1559 10.5568 10.9184 10.256 10.6817 9.8782C10.2052 9.11778 9.75088 8.07597 9.76212 6.8888C9.77279 5.76296 10.4712 4.67886 11.2497 3.83175C11.5047 3.55422 11.7601 3.31108 11.9871 3.1104ZM10.5766 11.4158C10.6057 11.4494 10.6334 11.481 10.6597 11.5104C10.4544 11.7998 10.3334 12.1524 10.3334 12.5355C10.3334 12.5646 10.3341 12.5936 10.3355 12.6223L10.3336 12.6234L2.75213 17.0488C2.59251 17.1419 2.49731 17.3156 2.50457 17.5002C2.51183 17.6849 2.62038 17.8505 2.78682 17.9309L3.00418 17.4806C2.78682 17.9309 2.78695 17.9309 2.7871 17.931L2.78747 17.9312L2.78844 17.9316L2.79134 17.933L2.80092 17.9376L2.83479 17.9533C2.86377 17.9667 2.90539 17.9855 2.9585 18.0086C3.06467 18.0549 3.2171 18.1186 3.40655 18.1904C3.78456 18.3337 4.31462 18.5112 4.92196 18.6468C6.11236 18.9125 7.71069 19.0423 9.02284 18.3012C10.2985 17.5808 11.0289 16.4282 11.4377 15.4897C11.6377 15.0305 11.7651 14.6127 11.8435 14.3037C11.9457 14.3212 12.0507 14.3303 12.1576 14.3303C12.328 14.3303 12.4935 14.3071 12.6508 14.2637V21.976C12.6508 22.2521 12.8746 22.476 13.1508 22.476C13.4269 22.476 13.6508 22.2521 13.6508 21.976V14.295L20.7478 18.3476C20.9083 18.4392 21.1062 18.4349 21.2625 18.3363C21.4188 18.2376 21.508 18.0608 21.4943 17.8765L20.9957 17.9134C21.4943 17.8765 21.4943 17.8764 21.4943 17.8762L21.4943 17.8758L21.4942 17.8747L21.494 17.8715L21.4931 17.8609L21.4898 17.8237C21.4869 17.792 21.4824 17.7465 21.4759 17.6889C21.4628 17.5739 21.4418 17.41 21.4092 17.21C21.3443 16.811 21.233 16.2632 21.0468 15.6695C20.6817 14.5057 19.995 13.0566 18.6971 12.2908C17.4545 11.5576 16.1639 11.4214 15.1998 11.4625C14.7161 11.4831 14.3082 11.5485 14.0192 11.6093C13.9163 11.6309 13.8282 11.652 13.7567 11.6704C13.5854 11.3649 13.3265 11.1148 13.0148 10.9513C13.021 10.9196 13.0241 10.8869 13.024 10.8534L12.9822 2.07495C12.9813 1.89014 12.8786 1.72088 12.715 1.63483C12.5514 1.54878 12.3537 1.55998 12.2009 1.66395L12.4822 2.07733C12.2009 1.66395 12.2008 1.66403 12.2007 1.66413L12.2003 1.66436L12.1994 1.66497L12.1968 1.66678L12.1881 1.6728L12.1575 1.69426C12.1314 1.71268 12.0943 1.73932 12.0477 1.77375C11.9546 1.84257 11.8232 1.94273 11.6663 2.07089C11.3532 2.32661 10.9345 2.6969 10.5134 3.15509C9.68807 4.05316 8.77645 5.37242 8.76217 6.87932C8.74847 8.32488 9.29933 9.55542 9.83429 10.4092C10.1033 10.8384 10.373 11.1802 10.5766 11.4158ZM13.9784 12.6461C13.9653 12.8593 13.9146 13.0618 13.833 13.2475L20.3486 16.9681C20.2883 16.6712 20.2054 16.3284 20.0926 15.9688C19.7482 14.8711 19.1586 13.7242 18.1889 13.152C17.1639 12.5472 16.0829 12.4258 15.2423 12.4616C14.8236 12.4795 14.4709 12.5362 14.2249 12.5879C14.1229 12.6093 14.0398 12.6298 13.9784 12.6461ZM11.3334 12.5355C11.3334 12.1071 11.6917 11.7408 12.1576 11.7408C12.6234 11.7408 12.9818 12.1071 12.9818 12.5355C12.9818 12.9639 12.6234 13.3303 12.1576 13.3303C11.6917 13.3303 11.3334 12.9639 11.3334 12.5355ZM10.9218 13.8557C10.8305 13.7731 10.7478 13.6814 10.675 13.582L4.14639 17.3928C4.43369 17.4891 4.77195 17.5887 5.13981 17.6708C6.26268 17.9214 7.55074 17.9842 8.53107 17.4305C9.5479 16.8562 10.1602 15.9184 10.5209 15.0903C10.6999 14.6793 10.8124 14.3053 10.8799 14.0352C10.8966 13.9684 10.9104 13.9083 10.9218 13.8557ZM11.1643 17.83C11.4405 17.83 11.6643 18.0538 11.6643 18.33V21.9223C11.6643 22.1985 11.4405 22.4223 11.1643 22.4223C10.8882 22.4223 10.6643 22.1985 10.6643 21.9223V18.33C10.6643 18.0538 10.8882 17.83 11.1643 17.83Z" fill="#6F7388"/>
</svg>
