<svg width="24" height="24" viewBox="0 0 24 24" fill="none" xmlns="http://www.w3.org/2000/svg">
<path d="M9.78836 2.28616C10.2024 1.96763 10.7084 1.78561 11.1685 1.78561C13.0547 1.78561 14.7108 4.42486 15.4009 8.1562" stroke="#6F7388" stroke-miterlimit="10" stroke-linejoin="round"/>
<path d="M6.70624 9.97646C6.93626 7.61024 7.53431 5.51705 8.31639 4.06091" stroke="#6F7388" stroke-miterlimit="10" stroke-linejoin="round"/>
<path d="M15.6769 9.9765C15.7689 10.7046 15.7689 11.4781 15.7689 12.2517C15.7689 18.0307 13.6987 22.7177 11.1685 22.7177C8.63828 22.7177 6.56808 18.0307 6.56808 12.2517C6.56808 11.9332 6.56808 11.6602 6.56808 11.3416" stroke="#6F7388" stroke-miterlimit="10" stroke-linejoin="round"/>
<path d="M6.56811 14.7089C2.93378 12.0241 0.955593 8.83886 2.01369 7.01869C3.30181 4.83449 8.40828 5.42604 13.4687 8.29281C15.0789 9.20289 16.505 10.2495 17.6091 11.3416" stroke="#6F7388" stroke-miterlimit="10" stroke-linejoin="round"/>
<path d="M20.6453 16.347C20.6453 16.7565 20.5533 17.1661 20.3693 17.4846C19.0812 19.6688 13.9747 19.0772 8.91423 16.2105C8.5922 16.0285 8.27017 15.8464 7.99414 15.6644" stroke="#6F7388" stroke-miterlimit="10" stroke-linejoin="round"/>
<path d="M18.5292 12.2516C18.9433 12.7067 19.3113 13.1617 19.5873 13.6168" stroke="#6F7388" stroke-miterlimit="10" stroke-linejoin="round"/>
<path d="M5.64804 18.8043C7.21219 18.7133 9.14436 18.2583 11.1686 17.3482" stroke="#6F7388" stroke-miterlimit="10" stroke-linejoin="round"/>
<path d="M9.32839 8.06525C9.19038 8.15625 9.00636 8.24726 8.86835 8.33827C3.80788 11.205 0.771601 15.3004 2.01372 17.4846C2.19773 17.8486 2.51976 18.1217 2.8878 18.3037" stroke="#6F7388" stroke-miterlimit="10" stroke-linejoin="round"/>
<path d="M13.0087 16.438C13.1467 16.347 13.3307 16.256 13.4687 16.165C18.5292 13.2527 21.6115 9.15736 20.3234 6.97316C19.2653 5.10749 15.4009 5.244 11.1685 7.10967" stroke="#6F7388" stroke-miterlimit="10" stroke-linejoin="round"/>
<path d="M9.59619 4.32217C10.2445 3.92583 10.4453 3.08465 10.0446 2.44335C9.6439 1.80205 8.79347 1.60348 8.14513 1.99982C7.49678 2.39617 7.29602 3.23734 7.69672 3.87864C8.09743 4.51994 8.94785 4.71852 9.59619 4.32217Z" stroke="#6F7388" stroke-miterlimit="10" stroke-linejoin="round"/>
<path d="M4.99533 19.7928C5.64368 19.3964 5.84444 18.5552 5.44374 17.9139C5.04304 17.2726 4.19261 17.0741 3.54427 17.4704C2.89592 17.8667 2.69516 18.7079 3.09586 19.3492C3.49656 19.9905 4.34699 20.1891 4.99533 19.7928Z" stroke="#6F7388" stroke-miterlimit="10" stroke-linejoin="round"/>
<path d="M21.0964 16.1534C21.7448 15.757 21.9455 14.9158 21.5448 14.2745C21.1441 13.6332 20.2937 13.4347 19.6453 13.831C18.997 14.2273 18.7962 15.0685 19.1969 15.7098C19.5976 16.3511 20.4481 16.5497 21.0964 16.1534Z" stroke="#6F7388" stroke-miterlimit="10" stroke-linejoin="round"/>
</svg>
