<svg width="22" height="23" viewBox="0 0 22 23" fill="none" xmlns="http://www.w3.org/2000/svg">
<path d="M8.78836 1.28616C9.2024 0.967631 9.70845 0.785614 10.1685 0.785614C12.0547 0.785614 13.7108 3.42486 14.4009 7.1562" stroke="#6F7388" stroke-miterlimit="10" stroke-linejoin="round"/>
<path d="M5.70624 8.97646C5.93626 6.61024 6.53431 4.51705 7.31639 3.06091" stroke="#6F7388" stroke-miterlimit="10" stroke-linejoin="round"/>
<path d="M14.6769 8.9765C14.7689 9.70457 14.7689 10.4781 14.7689 11.2517C14.7689 17.0307 12.6987 21.7177 10.1685 21.7177C7.63828 21.7177 5.56808 17.0307 5.56808 11.2517C5.56808 10.9332 5.56808 10.6602 5.56808 10.3416" stroke="#6F7388" stroke-miterlimit="10" stroke-linejoin="round"/>
<path d="M5.56811 13.7089C1.93378 11.0241 -0.0444068 7.83886 1.01369 6.01869C2.30181 3.83449 7.40828 4.42604 12.4687 7.29281C14.0789 8.20289 15.505 9.24949 16.6091 10.3416" stroke="#6F7388" stroke-miterlimit="10" stroke-linejoin="round"/>
<path d="M19.6453 15.347C19.6453 15.7565 19.5533 16.1661 19.3693 16.4846C18.0812 18.6688 12.9747 18.0772 7.91423 15.2105C7.5922 15.0285 7.27017 14.8464 6.99414 14.6644" stroke="#6F7388" stroke-miterlimit="10" stroke-linejoin="round"/>
<path d="M17.5292 11.2516C17.9433 11.7067 18.3113 12.1617 18.5873 12.6168" stroke="#6F7388" stroke-miterlimit="10" stroke-linejoin="round"/>
<path d="M4.64804 17.8043C6.21219 17.7133 8.14436 17.2583 10.1686 16.3482" stroke="#6F7388" stroke-miterlimit="10" stroke-linejoin="round"/>
<path d="M8.32839 7.06525C8.19038 7.15625 8.00636 7.24726 7.86835 7.33827C2.80788 10.205 -0.228399 14.3004 1.01372 16.4846C1.19773 16.8486 1.51976 17.1217 1.8878 17.3037" stroke="#6F7388" stroke-miterlimit="10" stroke-linejoin="round"/>
<path d="M12.0087 15.438C12.1467 15.347 12.3307 15.256 12.4687 15.165C17.5292 12.2527 20.6115 8.15736 19.3234 5.97316C18.2653 4.10749 14.4009 4.244 10.1685 6.10967" stroke="#6F7388" stroke-miterlimit="10" stroke-linejoin="round"/>
<path d="M8.59619 3.32217C9.24454 2.92583 9.4453 2.08465 9.0446 1.44335C8.6439 0.802051 7.79347 0.603476 7.14513 0.999822C6.49678 1.39617 6.29602 2.23734 6.69672 2.87864C7.09743 3.51994 7.94785 3.71852 8.59619 3.32217Z" stroke="#6F7388" stroke-miterlimit="10" stroke-linejoin="round"/>
<path d="M3.99533 18.7928C4.64368 18.3964 4.84444 17.5552 4.44374 16.9139C4.04304 16.2726 3.19261 16.0741 2.54427 16.4704C1.89592 16.8667 1.69516 17.7079 2.09586 18.3492C2.49656 18.9905 3.34699 19.1891 3.99533 18.7928Z" stroke="#6F7388" stroke-miterlimit="10" stroke-linejoin="round"/>
<path d="M20.0964 15.1534C20.7448 14.757 20.9455 13.9158 20.5448 13.2745C20.1441 12.6332 19.2937 12.4347 18.6453 12.831C17.997 13.2273 17.7962 14.0685 18.1969 14.7098C18.5976 15.3511 19.4481 15.5497 20.0964 15.1534Z" stroke="#6F7388" stroke-miterlimit="10" stroke-linejoin="round"/>
</svg>
