<svg width="24" height="25" viewBox="0 0 24 25" fill="none" xmlns="http://www.w3.org/2000/svg">
<path d="M9.78835 2.61236C10.2024 2.29383 10.7084 2.11182 11.1685 2.11182C13.0547 2.11182 14.7108 4.75106 15.4009 8.4824" stroke="#00B2EA" stroke-miterlimit="10" stroke-linejoin="round"/>
<path d="M6.70625 10.3028C6.93627 7.93653 7.53432 5.84334 8.31639 4.38721" stroke="#00B2EA" stroke-miterlimit="10" stroke-linejoin="round"/>
<path d="M15.6769 10.3027C15.7689 11.0308 15.7689 11.8044 15.7689 12.5779C15.7689 18.357 13.6987 23.0439 11.1685 23.0439C8.63828 23.0439 6.56808 18.357 6.56808 12.5779C6.56808 12.2594 6.56808 11.9864 6.56808 11.6679" stroke="#00B2EA" stroke-miterlimit="10" stroke-linejoin="round"/>
<path d="M6.56811 15.0349C2.93378 12.3502 0.955593 9.16488 2.01369 7.34471C3.30181 5.16051 8.40828 5.75206 13.4687 8.61883C15.0789 9.52891 16.505 10.5755 17.6091 11.6676" stroke="#00B2EA" stroke-miterlimit="10" stroke-linejoin="round"/>
<path d="M20.6453 16.6733C20.6453 17.0828 20.5533 17.4924 20.3693 17.8109C19.0812 19.9951 13.9747 19.4035 8.91423 16.5368C8.5922 16.3548 8.27017 16.1727 7.99415 15.9907" stroke="#00B2EA" stroke-miterlimit="10" stroke-linejoin="round"/>
<path d="M18.5293 12.5776C18.9433 13.0327 19.3113 13.4877 19.5873 13.9428" stroke="#00B2EA" stroke-miterlimit="10" stroke-linejoin="round"/>
<path d="M5.64803 19.1305C7.21217 19.0394 9.14435 18.5844 11.1685 17.6743" stroke="#00B2EA" stroke-miterlimit="10" stroke-linejoin="round"/>
<path d="M9.32839 8.3916C9.19038 8.48261 9.00636 8.57362 8.86835 8.66463C3.80788 11.5314 0.771601 15.6268 2.01372 17.811C2.19773 18.175 2.51976 18.448 2.8878 18.63" stroke="#00B2EA" stroke-miterlimit="10" stroke-linejoin="round"/>
<path d="M13.0087 16.7641C13.1467 16.673 13.3307 16.582 13.4687 16.491C18.5292 13.5788 21.6115 9.48338 20.3234 7.29918C19.2653 5.43351 15.4009 5.57002 11.1685 7.43569" stroke="#00B2EA" stroke-miterlimit="10" stroke-linejoin="round"/>
<path d="M9.5962 4.64816C10.2445 4.25182 10.4453 3.41064 10.0446 2.76934C9.6439 2.12804 8.79348 1.92946 8.14514 2.32581C7.49679 2.72216 7.29603 3.56333 7.69673 4.20463C8.09743 4.84593 8.94785 5.04451 9.5962 4.64816Z" stroke="#00B2EA" stroke-miterlimit="10" stroke-linejoin="round"/>
<path d="M4.99534 20.1189C5.64369 19.7225 5.84444 18.8813 5.44374 18.24C5.04304 17.5987 4.19262 17.4002 3.54427 17.7965C2.89593 18.1929 2.69517 19.034 3.09587 19.6753C3.49657 20.3166 4.34699 20.5152 4.99534 20.1189Z" stroke="#00B2EA" stroke-miterlimit="10" stroke-linejoin="round"/>
<path d="M21.0964 16.4792C21.7447 16.0829 21.9455 15.2417 21.5448 14.6004C21.1441 13.9591 20.2937 13.7605 19.6453 14.1569C18.997 14.5532 18.7962 15.3944 19.1969 16.0357C19.5976 16.677 20.448 16.8756 21.0964 16.4792Z" stroke="#00B2EA" stroke-miterlimit="10" stroke-linejoin="round"/>
</svg>
