<svg width="24" height="24" viewBox="0 0 24 24" fill="none" xmlns="http://www.w3.org/2000/svg">
<path d="M17.6906 7.89159C18.0636 7.89159 18.6234 7.52765 18.6234 6.98938C18.6234 6.31454 18.0567 5.87072 17.3016 5.89595C16.3568 5.9275 15.6182 6.73495 15.6492 7.69591C15.6884 8.89868 16.6765 9.84071 17.8566 9.80076C19.3317 9.75029 20.487 8.49285 20.4375 6.98938C20.3756 5.10953 18.8304 3.6376 16.9881 3.70068H6.66314C4.82086 3.6376 3.27564 5.10953 3.21375 6.98938C3.16424 8.49285 4.31954 9.75029 5.79461 9.80076C6.97466 9.84071 7.96286 8.89868 8.00205 7.69591C8.033 6.73495 7.29443 5.9275 6.34956 5.89595C5.59449 5.87072 5.0756 6.21978 5.04878 6.98938C5.02815 7.60549 5.61404 7.89159 6.06895 7.89159" stroke="#6F7388" stroke-miterlimit="10" stroke-linecap="round" stroke-linejoin="round"/>
<path d="M10.3814 10.1702V18.725" stroke="#6F7388" stroke-miterlimit="10" stroke-linecap="round" stroke-linejoin="round"/>
<path d="M13.3814 10.1702V18.725" stroke="#6F7388" stroke-miterlimit="10" stroke-linecap="round" stroke-linejoin="round"/>
<path d="M16.3814 9.46039L16.3814 18.725" stroke="#6F7388" stroke-miterlimit="10" stroke-linecap="round" stroke-linejoin="round"/>
<path d="M7.38144 9.46039L7.38144 18.725" stroke="#6F7388" stroke-miterlimit="10" stroke-linecap="round" stroke-linejoin="round"/>
<path d="M8.17349 7.79126H15.4776" stroke="#6F7388" stroke-miterlimit="10" stroke-linecap="round" stroke-linejoin="round"/>
<path d="M9.05185 5.76599H14.5994" stroke="#6F7388" stroke-miterlimit="10" stroke-linecap="round" stroke-linejoin="round"/>
</svg>
