<svg width="24" height="24" viewBox="0 0 24 24" fill="none" xmlns="http://www.w3.org/2000/svg">
<rect x="13.6129" y="15.0625" width="1.08" height="1.08" rx="0.540002" fill="#6F7388" stroke="#6F7388"/>
<rect x="9.30713" y="15.0625" width="1.08" height="1.08" rx="0.540002" fill="#6F7388" stroke="#6F7388"/>
<path d="M17.4186 19.4785C17.9499 19.4785 18.4594 19.2815 18.835 18.9309C19.2107 18.5802 19.4217 18.1047 19.4217 17.6088V14.8044C19.425 14.2721 19.5499 13.7465 19.7883 13.2629C19.9822 12.8695 20.2474 12.5112 20.5716 12.2036C20.687 12.0941 20.687 11.9059 20.5716 11.7963C20.2474 11.4887 19.9822 11.1305 19.7883 10.7371C19.5499 10.2535 19.425 9.72789 19.4217 9.19554V6.39111C19.4217 5.89525 19.2107 5.41971 18.835 5.06908C18.4594 4.71846 17.9499 4.52148 17.4186 4.52148" stroke="#6F7388" stroke-linecap="round"/>
<path d="M6.58142 19.4785C6.05015 19.4785 5.54064 19.2815 5.16497 18.9309C4.7893 18.5802 4.57825 18.1047 4.57825 17.6088V14.8044C4.57504 14.2721 4.45006 13.7465 4.2117 13.2629C4.01783 12.8695 3.75258 12.5112 3.42841 12.2036C3.31302 12.0941 3.31302 11.9059 3.42841 11.7963C3.75258 11.4887 4.01783 11.1305 4.2117 10.7371C4.45006 10.2535 4.57504 9.72789 4.57825 9.19554V6.39111C4.57825 5.89525 4.7893 5.41971 5.16497 5.06908C5.54064 4.71846 6.05015 4.52148 6.58142 4.52148" stroke="#6F7388" stroke-linecap="round"/>
</svg>
