<svg width="40" height="40" viewBox="0 0 40 40" fill="none" xmlns="http://www.w3.org/2000/svg">
<circle cx="20" cy="20" r="20" fill="url(#paint0_linear_5719_4870)"/>
<path d="M20.6666 39.9893V21.543L27.8115 25.6497V38.417C25.6048 39.3542 23.1949 39.9066 20.6666 39.9893Z" fill="url(#paint1_linear_5719_4870)"/>
<path d="M17.7445 39.8743V8.72101L23.2328 3.70245V39.7402C22.1804 39.9111 21.1006 40 20 40C19.2373 40 18.4847 39.9573 17.7445 39.8743Z" fill="url(#paint2_linear_5719_4870)"/>
<path d="M29.3334 37.6932V15.6667H30.6667V36.9212C30.2332 37.195 29.7885 37.4526 29.3334 37.6932Z" fill="url(#paint3_linear_5719_4870)"/>
<path d="M30.6667 36.9212V15.6667H32.0001V36.0015C31.5688 36.3254 31.124 36.6323 30.6667 36.9212Z" fill="url(#paint4_linear_5719_4870)"/>
<path d="M29.3334 12L32 15.6667V23.6667H29.3334V12Z" fill="url(#paint5_linear_5719_4870)"/>
<path d="M18.5179 39.946V20.5131H21.455V39.948C20.9745 39.9825 20.4893 40.0001 20 40.0001C19.5015 40.0001 19.0073 39.9819 18.5179 39.946Z" fill="url(#paint6_linear_5719_4870)"/>
<path d="M21.4548 39.948V20.5131H24.3918V39.5164C23.4368 39.7304 22.456 39.876 21.4548 39.948Z" fill="url(#paint7_linear_5719_4870)"/>
<path d="M24.392 17.4835L18.5179 20.5144V29.5144H24.392V17.4835Z" fill="url(#paint8_linear_5719_4870)"/>
<path d="M17.4397 39.8378C17.0772 39.7915 16.7178 39.7355 16.3617 39.67V20.5132H17.4397V39.8378Z" fill="url(#paint9_linear_5719_4870)"/>
<path d="M18.5174 39.946C18.1553 39.9195 17.7959 39.8833 17.4395 39.8378V20.5132H18.5174V39.946Z" fill="url(#paint10_linear_5719_4870)"/>
<path d="M16.3621 20.5131H18.518V36.9213H16.3621V20.5131Z" fill="url(#paint11_linear_5719_4870)"/>
<path d="M22.2471 17.4807L16.3555 20.5135H18.5472L24.3964 17.481L22.2471 17.4807Z" fill="white"/>
<path d="M22.4432 17.8529L18.1705 20.1496C17.5362 18.9697 17.9786 17.4991 19.1585 16.8649C20.3383 16.2306 21.809 16.673 22.4432 17.8529Z" fill="url(#paint12_linear_5719_4870)"/>
<path d="M15.0001 39.3699C14.5493 39.2539 14.1046 39.1226 13.6667 38.9765V19.3334H15.0001V39.3699Z" fill="url(#paint13_linear_5719_4870)"/>
<path d="M13.6667 38.9765C13.2149 38.8258 12.7702 38.6594 12.3334 38.4779V19.3334H13.6667V38.9765Z" fill="url(#paint14_linear_5719_4870)"/>
<path d="M12.3334 15.6667L15 19.3334V25H12.3334V15.6667Z" fill="url(#paint15_linear_5719_4870)"/>
<path d="M12.3333 38.4779C11.4072 38.0931 10.5162 37.641 9.66663 37.1273V19.3334L12.3333 15.6667V38.4779Z" fill="url(#paint16_linear_5719_4870)"/>
<path d="M7 35.1992V28.6667H9.66667V37.1272C8.72414 36.5573 7.83245 35.9119 7 35.1992Z" fill="url(#paint17_linear_5719_4870)"/>
<path d="M9.66675 37.1272V28.6667H12.3334V38.4779C11.4073 38.0932 10.5164 37.6409 9.66675 37.1272Z" fill="url(#paint18_linear_5719_4870)"/>
<path d="M12.3334 28.6667L9.66671 26L7.00004 28.6667V34.3333H12.3334V28.6667Z" fill="url(#paint19_linear_5719_4870)"/>
<defs>
<linearGradient id="paint0_linear_5719_4870" x1="20" y1="0" x2="20" y2="40" gradientUnits="userSpaceOnUse">
<stop stop-color="#00B2EA"/>
<stop offset="1" stop-color="#00B2EA" stop-opacity="0.5"/>
</linearGradient>
<linearGradient id="paint1_linear_5719_4870" x1="25.6858" y1="24.4" x2="22.1834" y2="40.8462" gradientUnits="userSpaceOnUse">
<stop stop-color="#B7EEFF"/>
<stop offset="1" stop-color="#00B6EF"/>
</linearGradient>
<linearGradient id="paint2_linear_5719_4870" x1="23.1667" y1="11.8333" x2="17.6667" y2="11.8333" gradientUnits="userSpaceOnUse">
<stop stop-color="#D3F5FF"/>
<stop offset="1" stop-color="#74DEFF"/>
</linearGradient>
<linearGradient id="paint3_linear_5719_4870" x1="30" y1="15.6667" x2="30" y2="40.3334" gradientUnits="userSpaceOnUse">
<stop stop-color="#CBF3FF"/>
<stop offset="0.16897" stop-color="white"/>
<stop offset="1" stop-color="#FBFEFF"/>
</linearGradient>
<linearGradient id="paint4_linear_5719_4870" x1="31.3334" y1="15.6667" x2="31.3334" y2="40.3334" gradientUnits="userSpaceOnUse">
<stop stop-color="#A5EAFF"/>
<stop offset="0.16897" stop-color="#48D3FF"/>
<stop offset="1" stop-color="#4AD4FF"/>
</linearGradient>
<linearGradient id="paint5_linear_5719_4870" x1="30.6667" y1="12" x2="30.6667" y2="23.6667" gradientUnits="userSpaceOnUse">
<stop stop-color="#B0EBFD"/>
<stop offset="0.490637" stop-color="#85E2FF"/>
<stop offset="1" stop-color="#85E2FF" stop-opacity="0"/>
</linearGradient>
<linearGradient id="paint6_linear_5719_4870" x1="19.9865" y1="24.6384" x2="19.9865" y2="40.0001" gradientUnits="userSpaceOnUse">
<stop stop-color="#CBF3FF"/>
<stop offset="1" stop-color="#FBFEFF"/>
</linearGradient>
<linearGradient id="paint7_linear_5719_4870" x1="22.9233" y1="20.5131" x2="22.9233" y2="50.9142" gradientUnits="userSpaceOnUse">
<stop stop-color="#A5EAFF"/>
<stop offset="1" stop-color="#48D3FF"/>
</linearGradient>
<linearGradient id="paint8_linear_5719_4870" x1="21.455" y1="16.8461" x2="21.455" y2="29.5144" gradientUnits="userSpaceOnUse">
<stop stop-color="#85E2FF"/>
<stop offset="0.387798" stop-color="#85E2FF"/>
<stop offset="1" stop-color="#85E2FF" stop-opacity="0"/>
</linearGradient>
<linearGradient id="paint9_linear_5719_4870" x1="16.9007" y1="20.5132" x2="16.9007" y2="50.9142" gradientUnits="userSpaceOnUse">
<stop stop-color="#CBF3FF"/>
<stop offset="0.373255" stop-color="#CCF3FF"/>
<stop offset="1" stop-color="#CCF3FF"/>
</linearGradient>
<linearGradient id="paint10_linear_5719_4870" x1="17.9784" y1="20.5132" x2="17.9784" y2="50.9142" gradientUnits="userSpaceOnUse">
<stop stop-color="#48D3FF"/>
<stop offset="1" stop-color="#4AD4FF"/>
</linearGradient>
<linearGradient id="paint11_linear_5719_4870" x1="18.518" y1="24.5433" x2="15.9801" y2="25.4612" gradientUnits="userSpaceOnUse">
<stop stop-color="#55D7FF"/>
<stop offset="1" stop-color="#85E2FF" stop-opacity="0"/>
</linearGradient>
<linearGradient id="paint12_linear_5719_4870" x1="19.7327" y1="16.543" x2="19.7327" y2="20.1496" gradientUnits="userSpaceOnUse">
<stop stop-color="white"/>
<stop offset="1" stop-color="#4FD5FF"/>
</linearGradient>
<linearGradient id="paint13_linear_5719_4870" x1="14.3334" y1="19.3334" x2="14.3334" y2="43.6667" gradientUnits="userSpaceOnUse">
<stop stop-color="#CBF3FF"/>
<stop offset="0.16897" stop-color="white"/>
<stop offset="1" stop-color="#FBFEFF"/>
</linearGradient>
<linearGradient id="paint14_linear_5719_4870" x1="13" y1="19.3334" x2="13" y2="43.6667" gradientUnits="userSpaceOnUse">
<stop stop-color="#A5EAFF"/>
<stop offset="0.453125" stop-color="#48D3FF"/>
<stop offset="1" stop-color="#4AD4FF"/>
</linearGradient>
<linearGradient id="paint15_linear_5719_4870" x1="13.6667" y1="15.6667" x2="13.6667" y2="25" gradientUnits="userSpaceOnUse">
<stop stop-color="#85E2FF"/>
<stop offset="0.404207" stop-color="#85E2FF"/>
<stop offset="1" stop-color="#85E2FF" stop-opacity="0"/>
</linearGradient>
<linearGradient id="paint16_linear_5719_4870" x1="11" y1="15.6667" x2="11" y2="38.4779" gradientUnits="userSpaceOnUse">
<stop stop-color="#D3F5FF"/>
<stop offset="0.437039" stop-color="#85E2FF"/>
<stop offset="1" stop-color="#85E2FF"/>
</linearGradient>
<linearGradient id="paint17_linear_5719_4870" x1="8.33333" y1="28.6667" x2="8.33333" y2="37.8006" gradientUnits="userSpaceOnUse">
<stop stop-color="#C8F2FF"/>
<stop offset="1" stop-color="#D8F6FF"/>
</linearGradient>
<linearGradient id="paint18_linear_5719_4870" x1="11.0001" y1="28.6667" x2="11.0001" y2="43.6667" gradientUnits="userSpaceOnUse">
<stop stop-color="#A5EAFF"/>
<stop offset="1" stop-color="#48D3FF"/>
</linearGradient>
<linearGradient id="paint19_linear_5719_4870" x1="9.66671" y1="25" x2="9.66671" y2="34.3333" gradientUnits="userSpaceOnUse">
<stop stop-color="#85E2FF"/>
<stop offset="0.404207" stop-color="#85E2FF"/>
<stop offset="1" stop-color="#85E2FF" stop-opacity="0"/>
</linearGradient>
</defs>
</svg>
