<svg width="20" height="20" viewBox="0 0 20 20" fill="none" xmlns="http://www.w3.org/2000/svg">
<path fill-rule="evenodd" clip-rule="evenodd" d="M9.92765 10.5467C11.2344 9.84351 12.1227 8.46304 12.1227 6.8751C12.1227 4.57392 10.2572 2.70844 7.95605 2.70844C5.65487 2.70844 3.78939 4.57392 3.78939 6.8751C3.78939 8.46304 4.67768 9.84351 5.98446 10.5467C3.48661 11.4302 1.70605 13.9463 1.70605 16.8749C1.70605 17.105 1.8926 17.2916 2.12272 17.2916C2.35284 17.2916 2.53939 17.105 2.53939 16.8749C2.53939 13.6263 4.99106 11.0426 7.95605 11.0426C10.921 11.0426 13.3727 13.6263 13.3727 16.8749C13.3727 17.105 13.5593 17.2916 13.7894 17.2916C14.0195 17.2916 14.2061 17.105 14.2061 16.8749C14.2061 13.9463 12.4255 11.4302 9.92765 10.5467ZM11.2894 6.8751C11.2894 8.71605 9.797 10.2084 7.95605 10.2084C6.11511 10.2084 4.62272 8.71605 4.62272 6.8751C4.62272 5.03415 6.11511 3.54177 7.95605 3.54177C9.797 3.54177 11.2894 5.03415 11.2894 6.8751Z" fill="#2D3142"/>
<path d="M15.462 12.6315C15.2318 12.6315 15.0453 12.445 15.0453 12.2149V10.2162H13.0468C12.8167 10.2162 12.6301 10.0296 12.6301 9.7995C12.6301 9.56938 12.8167 9.38283 13.0468 9.38283H15.0453V7.38444C15.0453 7.15432 15.2318 6.96777 15.462 6.96777C15.6921 6.96777 15.8786 7.15432 15.8786 7.38444V9.38283H17.8772C18.1073 9.38283 18.2939 9.56938 18.2939 9.7995C18.2939 10.0296 18.1073 10.2162 17.8772 10.2162H15.8786V12.2149C15.8786 12.445 15.6921 12.6315 15.462 12.6315Z" fill="#2D3142"/>
</svg>
