<svg width="20" height="20" viewBox="0 0 20 20" fill="none" xmlns="http://www.w3.org/2000/svg">
<path d="M10.7733 2.00314L11.7855 3.11917C12.0342 3.39271 12.4173 3.51033 12.7861 3.43101L14.29 3.09729C14.8962 2.96326 15.4823 3.37356 15.5366 3.96441L15.671 5.43604C15.7053 5.79711 15.9426 6.10894 16.2885 6.25118L17.7095 6.82835C18.2813 7.06086 18.5043 7.72282 18.187 8.2316L17.3921 9.49808C17.1977 9.80718 17.1977 10.1956 17.3921 10.5047L18.187 11.7712C18.5072 12.28 18.2813 12.9419 17.7095 13.1744L16.2885 13.7516C15.9397 13.8938 15.7024 14.2057 15.671 14.5667L15.5366 16.0384C15.4823 16.6292 14.8933 17.0395 14.29 16.9055L12.7861 16.5718C12.4173 16.4897 12.0342 16.6101 11.7855 16.8836L10.7733 17.9969C10.3674 18.4455 9.63829 18.4455 9.23229 17.9969L8.22018 16.8809C7.97144 16.6073 7.58832 16.4897 7.21949 16.569L5.71275 16.9028C5.10663 17.0368 4.52051 16.6265 4.46619 16.0356L4.33181 14.564C4.2975 14.2029 4.0602 13.8911 3.71425 13.7489L2.29328 13.1717C1.72146 12.9392 1.49846 12.2772 1.81581 11.7684L2.61064 10.502C2.80506 10.1929 2.80506 9.80444 2.61064 9.49534L1.81296 8.22886C1.49274 7.72008 1.71861 7.05812 2.29042 6.82561L3.71139 6.24845C4.0602 6.10621 4.2975 5.79437 4.32895 5.4333L4.46333 3.96441C4.51765 3.37356 5.10663 2.96326 5.7099 3.09729L7.21378 3.43101C7.5826 3.51307 7.96572 3.39271 8.21446 3.11917L9.22658 2.00314C9.63828 1.55454 10.3645 1.55454 10.7733 2.00314Z" fill="#00B2EA"/>
<path d="M8.44484 13.3334C8.28368 13.3334 8.12252 13.2685 8.00165 13.1415L6.01669 11.0568C5.77227 10.8001 5.77227 10.3826 6.01669 10.1259C6.26112 9.8692 6.65865 9.8692 6.90308 10.1259L8.44484 11.7451L13.097 6.85922C13.3414 6.60251 13.739 6.60251 13.9834 6.85922C14.2278 7.11593 14.2278 7.53343 13.9834 7.79014L8.88803 13.1387C8.76448 13.2685 8.606 13.3334 8.44484 13.3334Z" fill="white"/>
</svg>
